<svg width="58" height="70" viewBox="0 0 58 70" fill="none" xmlns="http://www.w3.org/2000/svg">
<path d="M8.11067 3.50737C7.50542 3.50737 7.0146 3.99805 7.0146 4.60344C7.0146 5.93302 5.93289 7.01474 4.6033 7.01474C3.27372 7.01474 2.192 5.93302 2.192 4.60344C2.192 3.27385 3.27372 2.19214 4.6033 2.19214C5.20855 2.19214 5.69937 1.70146 5.69937 1.09607C5.69937 0.490681 5.20869 -1.25169e-07 4.6033 -1.25169e-07C2.06499 -1.25169e-07 -3.50474e-07 2.06513 -3.50474e-07 4.6033C-3.50474e-07 7.14148 2.06513 9.20661 4.6033 9.20661C7.14148 9.20661 9.2066 7.14148 9.2066 4.6033C9.20674 3.99805 8.71592 3.50737 8.11067 3.50737Z" transform="translate(7.01465 10.5219)" fill="#333333"/>
<path d="M8.11067 3.50737C7.50542 3.50737 7.0146 3.99805 7.0146 4.60344C7.0146 5.93302 5.93289 7.01474 4.6033 7.01474C3.27372 7.01474 2.192 5.93302 2.192 4.60344C2.192 3.27385 3.27372 2.19214 4.6033 2.19214C5.20855 2.19214 5.69937 1.70146 5.69937 1.09607C5.69937 0.490682 5.20869 4.3392e-07 4.6033 4.3392e-07C2.06499 4.3392e-07 -3.50474e-07 2.06513 -3.50474e-07 4.6033C-3.50474e-07 7.14148 2.06513 9.2066 4.6033 9.2066C7.14148 9.2066 9.2066 7.14148 9.2066 4.6033C9.20674 3.99819 8.71592 3.50737 8.11067 3.50737Z" transform="translate(7.01465 23.3818)" fill="#333333"/>
<path d="M9.27975 9.51286e-07H1.09607C0.490818 9.51286e-07 -1.33514e-07 0.490682 -1.33514e-07 1.09607C-1.33514e-07 1.70146 0.490681 2.19214 1.09607 2.19214H9.27975C9.885 2.19214 10.3758 1.70146 10.3758 1.09607C10.3758 0.490682 9.88514 9.51286e-07 9.27975 9.51286e-07Z" transform="translate(18.7056 29.2275)" fill="#333333"/>
<path d="M9.27975 7.00948e-07H1.09607C0.490818 7.00948e-07 -1.33514e-07 0.490682 -1.33514e-07 1.09607C-1.33514e-07 1.70146 0.490681 2.19214 1.09607 2.19214H9.27975C9.885 2.19214 10.3758 1.70146 10.3758 1.09607C10.3758 0.490682 9.88514 7.00948e-07 9.27975 7.00948e-07Z" transform="translate(18.7056 24.551)" fill="#333333"/>
<path d="M6.94159 4.67299e-07H1.09607C0.490818 4.67299e-07 -1.33514e-07 0.490682 -1.33514e-07 1.09607C-1.33514e-07 1.70146 0.490681 2.19214 1.09607 2.19214H6.94159C7.54684 2.19214 8.03767 1.70146 8.03767 1.09607C8.03767 0.490682 7.54684 4.67299e-07 6.94159 4.67299e-07Z" transform="translate(18.7056 42.0874)" fill="#333333"/>
<path d="M9.27975 -9.01219e-07H1.09607C0.490818 -9.01219e-07 -1.33514e-07 0.490681 -1.33514e-07 1.09607C-1.33514e-07 1.70146 0.490681 2.19214 1.09607 2.19214H9.27975C9.885 2.19214 10.3758 1.70146 10.3758 1.09607C10.3758 0.490681 9.88514 -9.01219e-07 9.27975 -9.01219e-07Z" transform="translate(18.7056 37.4111)" fill="#333333"/>
<path d="M19.8017 4.67299e-07H1.09607C0.490818 4.67299e-07 -1.33514e-07 0.490682 -1.33514e-07 1.09607C-1.33514e-07 1.70146 0.490681 2.19214 1.09607 2.19214H19.8016C20.4068 2.19214 20.8977 1.70146 20.8977 1.09607C20.8977 0.490682 20.407 4.67299e-07 19.8017 4.67299e-07Z" transform="translate(18.7056 16.3673)" fill="#333333"/>
<path d="M15.1253 2.1696e-07H1.09607C0.490818 2.1696e-07 -1.33514e-07 0.490682 -1.33514e-07 1.09607C-1.33514e-07 1.70146 0.490681 2.19214 1.09607 2.19214H15.1253C15.7305 2.19214 16.2213 1.70146 16.2213 1.09607C16.2213 0.490682 15.7307 2.1696e-07 15.1253 2.1696e-07Z" transform="translate(18.7056 11.6909)" fill="#333333"/>
<path d="M8.11067 3.50737C7.50542 3.50737 7.0146 3.99805 7.0146 4.60344C7.0146 5.93303 5.93289 7.01474 4.6033 7.01474C3.27372 7.01474 2.192 5.93303 2.192 4.60344C2.192 3.27386 3.27372 2.19214 4.6033 2.19214C5.20855 2.19214 5.69937 1.70146 5.69937 1.09607C5.69937 0.49068 5.20869 -1.16825e-06 4.6033 -1.16825e-06C2.06499 -1.16825e-06 -3.50474e-07 2.06513 -3.50474e-07 4.6033C-3.50474e-07 7.14148 2.06513 9.2066 4.6033 9.2066C7.14148 9.2066 9.2066 7.14148 9.2066 4.6033C9.20674 3.99805 8.71592 3.50737 8.11067 3.50737Z" transform="translate(7.01465 36.2419)" fill="#333333"/>
<path d="M43.1835 0H3.43423C1.54068 0 -2.41994e-07 1.54054 -2.41994e-07 3.43423V52.5363C-2.41994e-07 54.43 1.54054 55.9705 3.43423 55.9705H23.309C23.9142 55.9705 24.405 55.4798 24.405 54.8745C24.405 54.2692 23.9143 53.7784 23.309 53.7784H3.43423C2.74927 53.7784 2.192 53.2211 2.192 52.5362V3.43423C2.192 2.74927 2.74927 2.192 3.43423 2.192H43.1835C43.8685 2.192 44.4258 2.74927 44.4258 3.43423V39.6764C44.4258 40.2817 44.9165 40.7725 45.5218 40.7725C46.1271 40.7725 46.6179 40.2818 46.6179 39.6764V3.43423C46.6178 1.54054 45.0772 0 43.1835 0Z" fill="#333333"/>
<path d="M27.2242 19.8947C26.2055 19.7931 25.1874 20.0818 24.3816 20.6937C23.7397 19.6166 22.6451 18.8525 21.3787 18.7256C20.3597 18.6242 19.3417 18.9129 18.536 19.5246C17.8942 18.4475 16.7996 17.6834 15.5332 17.5565C14.7552 17.4789 13.9784 17.6287 13.2958 17.9761V4.01827C13.2958 2.88502 12.8137 1.79866 11.9727 1.03782C11.1326 0.277666 10.0005 -0.0933874 8.86638 0.0200887C6.84308 0.222705 5.25824 2.05213 5.25824 4.18507V18.1782L2.03634 21.4001C0.32422 23.1122 -0.36689 25.5414 0.187776 27.8984L2.6338 38.2941C3.62487 42.5065 7.33937 45.4484 11.6668 45.4484H21.5525C26.6693 45.4484 30.8322 41.2856 30.8322 36.1687V24.0599C30.8323 21.9267 29.2475 20.0973 27.2242 19.8947ZM28.6402 36.1684C28.6402 40.0765 25.4607 43.256 21.5526 43.256H11.6669C8.36175 43.256 5.52457 41.009 4.76756 37.7916L2.32154 27.396C1.94201 25.7834 2.41492 24.1212 3.58632 22.9498L5.25824 21.2779V25.0619C5.25824 25.6672 5.74892 26.158 6.35431 26.158C6.9597 26.158 7.45039 25.6673 7.45039 25.0619V4.18494C7.45039 3.16433 8.16829 2.29289 9.08499 2.20129C9.61149 2.14838 10.115 2.31272 10.5022 2.66326C10.8846 3.00929 11.1039 3.50326 11.1039 4.01841V23.3085C11.1039 23.9138 11.5946 24.4046 12.2 24.4046C12.8054 24.4046 13.296 23.9139 13.296 23.3085V21.5549C13.296 21.0397 13.5152 20.5457 13.8977 20.1997C14.2852 19.8492 14.7885 19.6847 15.315 19.7377C16.2315 19.8295 16.9496 20.7009 16.9496 21.7215V24.4773C16.9496 25.0826 17.4402 25.5734 18.0456 25.5734C18.6509 25.5734 19.1417 25.0827 19.1417 24.4773V22.7237C19.1417 22.2085 19.3609 21.7145 19.7434 21.3685C20.1309 21.018 20.6343 20.8536 21.1606 20.9065C22.0772 20.9983 22.7952 21.8697 22.7952 22.8903V25.6463C22.7952 26.2515 23.2859 26.7423 23.8913 26.7423C24.4966 26.7423 24.9874 26.2517 24.9874 25.6463V23.8926C24.9874 23.3774 25.2065 22.8835 25.5891 22.5374C25.9765 22.187 26.4795 22.0224 27.0063 22.0756C27.9228 22.1672 28.6409 23.0387 28.6409 24.0593V36.1684H28.6402Z" transform="translate(26.3076 24.5516)" fill="#333333"/>
</svg>
