<svg width="59" height="63" viewBox="0 0 59 63" fill="none" xmlns="http://www.w3.org/2000/svg">
<path d="M51.4649 -9.76322e-08H49.1939C48.677 -9.76322e-08 48.2582 0.418974 48.2582 0.93577C48.2582 1.45257 48.677 1.87154 49.1939 1.87154H51.4649C54.1806 1.87154 56.3901 4.08035 56.3901 6.79537V33.9206C56.3901 36.6357 54.1806 38.8445 51.4649 38.8445H6.79537C4.08035 38.8445 1.87154 36.6357 1.87154 33.9206V12.6828C1.87154 12.166 1.45257 11.747 0.93577 11.747C0.418974 11.747 -3.56733e-08 12.166 -3.56733e-08 12.6828V33.9206C-3.56733e-08 37.6675 3.04836 40.7159 6.79525 40.7159H20.4261V44.081C17.5978 44.2995 15.3627 46.6691 15.3627 49.5526C15.3627 50.0694 15.7817 50.4884 16.2985 50.4884H41.9627C42.4796 50.4884 42.8985 50.0694 42.8985 49.5526C42.8985 46.6691 40.6633 44.2995 37.8351 44.081V40.7159H51.4647C55.2124 40.7159 58.2614 37.6675 58.2614 33.9206V6.79525C58.2614 3.04836 55.2125 -9.76322e-08 51.4649 -9.76322e-08ZM22.2978 40.7158H35.9638V44.0626H22.2978V40.7158ZM40.9044 48.6168H17.3568C17.7703 47.0736 19.1809 45.9342 20.8526 45.9342H37.4088C39.0805 45.9342 40.4911 47.0736 40.9044 48.6168Z" transform="translate(0 12.5115)" fill="#333333"/>
<path d="M9.85985 -7.33429e-07C4.42316 -0.00012378 3.00407e-08 4.42254 3.00407e-08 9.85862C3.00407e-08 11.568 0.444076 13.251 1.28412 14.7259C1.53993 15.1749 2.11136 15.3315 2.56035 15.0758C3.00935 14.82 3.16599 14.2487 2.9103 13.7996C2.23071 12.6065 1.87142 11.2438 1.87142 9.85862C1.87142 5.45441 5.45515 1.87129 9.85997 1.87129C14.2642 1.87129 17.8473 5.45441 17.8473 9.85862C17.8473 11.2433 17.4884 12.6061 16.8094 13.8002C16.5538 14.2494 16.711 14.8206 17.1602 15.0762C17.3063 15.1592 17.4651 15.1987 17.622 15.1987C17.9475 15.1987 18.2639 15.0285 18.4362 14.7254C19.2754 13.2499 19.7187 11.5671 19.7187 9.85874C19.7187 4.42266 15.2961 -7.33429e-07 9.85985 -7.33429e-07Z" transform="translate(16.1577 30.9922)" fill="#333333"/>
<path d="M37.423 30.0031H2.37554C2.09758 30.0031 1.87154 29.7769 1.87154 29.4991V2.37554C1.87154 2.09758 2.09758 1.87154 2.37554 1.87154H5.97244C6.48923 1.87154 6.90821 1.45257 6.90821 0.93577C6.90821 0.418974 6.48923 -7.96078e-07 5.97244 -7.96078e-07H2.37554C1.06571 -7.96078e-07 -1.61469e-07 1.06571 -1.61469e-07 2.37554V29.4991C-1.61469e-07 30.8089 1.06558 31.8746 2.37554 31.8746H37.423C37.94 31.8746 38.3588 31.4556 38.3588 30.9388C38.3588 30.4221 37.94 30.0031 37.423 30.0031Z" transform="translate(4.41992 16.9324)" fill="#333333"/>
<path d="M8.36336 0.0743419C7.88766 -0.127209 7.33825 0.0951361 7.13683 0.571204C6.93528 1.04715 7.15775 1.59631 7.63344 1.79773C7.82158 1.87747 7.94315 2.05982 7.94315 2.26248V29.386C7.94328 29.6639 7.71662 29.89 7.43805 29.89H0.935769C0.41885 29.89 1.71232e-06 30.309 1.71232e-06 30.8258C1.71232e-06 31.3426 0.41885 31.7616 0.935769 31.7616H7.43805C8.74862 31.7616 9.81482 30.6959 9.81482 29.386V2.26248C9.81469 1.30653 9.24511 0.447788 8.36336 0.0743419Z" transform="translate(44.0264 17.0454)" fill="#333333"/>
<path d="M9.85887 1.12653e-07C4.42267 1.12653e-07 1.74236e-06 4.42267 1.74236e-06 9.85899C1.74236e-06 15.2953 4.42267 19.718 9.85887 19.718C15.2951 19.718 19.7177 15.2953 19.7177 9.85899C19.7177 4.42267 15.2951 1.12653e-07 9.85887 1.12653e-07ZM9.85887 17.8467C5.45466 17.8467 1.87142 14.2634 1.87142 9.85911C1.87142 5.45478 5.45453 1.87154 9.85887 1.87154C14.2632 1.87154 17.8463 5.45478 17.8463 9.85911C17.8463 14.2634 14.2631 17.8467 9.85887 17.8467Z" transform="translate(31.0537 11.3867)" fill="#333333"/>
<path d="M18.9428 6.02104C18.7415 5.5451 18.1921 5.32214 17.7165 5.52369C17.2406 5.72511 17.0178 6.27415 17.2191 6.74997C17.6354 7.73422 17.8464 8.78012 17.8464 9.85887C17.8464 14.2632 14.2632 17.8464 9.85886 17.8464C5.45453 17.8464 1.87129 14.2632 1.87129 9.85887C1.87129 5.45453 5.45453 1.87142 9.85886 1.87142C12.2515 1.87142 14.4982 2.93109 16.0228 4.77852C16.3518 5.17706 16.9414 5.23354 17.3401 4.90464C17.7388 4.57561 17.7951 3.98585 17.4662 3.5873C15.5848 1.30749 12.8121 0 9.85899 0C4.42267 0 5.25712e-08 4.42267 5.25712e-08 9.85887C5.25712e-08 15.2951 4.42267 19.7179 9.85899 19.7179C15.2953 19.7179 19.718 15.2952 19.718 9.85887C19.718 8.52836 19.4572 7.23711 18.9428 6.02104Z" transform="translate(9.46191)" fill="#333333"/>
<path d="M3.5558 -6.60895e-07H0.93577C0.418974 -6.60895e-07 -9.31261e-07 0.418975 -9.31261e-07 0.93577C-9.31261e-07 1.45257 0.418974 1.87154 0.93577 1.87154H3.5558C4.07272 1.87154 4.49157 1.45257 4.49157 0.93577C4.49157 0.418975 4.0726 -6.60895e-07 3.5558 -6.60895e-07Z" transform="translate(26.2373 16.9321)" fill="#333333"/>
<path d="M2.86969 -9.76322e-08H0.935769C0.41885 -9.76322e-08 1.35183e-06 0.418974 1.35183e-06 0.93577C1.35183e-06 1.45257 0.41885 1.87154 0.935769 1.87154H2.86957C3.38649 1.87154 3.80534 1.45257 3.80534 0.93577C3.80534 0.418974 3.38649 -9.76322e-08 2.86969 -9.76322e-08Z" transform="translate(29.5435 12.5115)" fill="#333333"/>
<path d="M8.19491 -9.76322e-08H6.79525C3.04836 -9.76322e-08 -7.6169e-08 3.04836 -7.6169e-08 6.79525V8.66654C-0.000123123 9.18334 0.418851 9.60231 0.935647 9.60231C1.45244 9.60231 1.87142 9.18334 1.87142 8.66654V6.79525C1.87142 4.08023 4.08023 1.87142 6.79525 1.87142H8.19491C8.7117 1.87142 9.13068 1.45244 9.13068 0.935647C9.13068 0.418851 8.7117 -9.76322e-08 8.19491 -9.76322e-08Z" transform="translate(0 12.5115)" fill="#333333"/>
<path d="M17.6099 15.173H2.08441C1.7528 15.173 1.44666 14.9951 1.28252 14.7069C0.44346 13.2339 -4.95671e-07 11.5531 -4.95671e-07 9.84595C-4.95671e-07 4.41688 4.41737 7.51017e-07 9.84718 7.51017e-07C15.2762 7.51017e-07 19.6931 4.41688 19.6931 9.84595C19.6931 11.5521 19.2502 13.2328 18.4122 14.7064C18.2481 14.9948 17.9418 15.173 17.6099 15.173ZM2.6412 13.3273H17.0528C17.5739 12.2486 17.8474 11.0555 17.8474 9.84595C17.8474 5.4346 14.2585 1.8457 9.84718 1.8457C5.43522 1.8457 1.8457 5.4346 1.8457 9.84595C1.8457 11.056 2.11936 12.249 2.6412 13.3273Z" transform="translate(16.1709 31.0044)" fill="#333333"/>
<path d="M1.95903 3.35142C1.95903 3.00246 2.28547 2.67602 3.08466 2.67602C4.00763 2.67602 4.22149 3.10373 4.62668 3.10373C5.12194 3.10373 5.3246 2.48468 5.3246 2.18075C5.3246 1.61412 4.64021 1.36717 3.99434 1.26258V0.613141C3.99434 0.274517 3.71982 -5.40732e-07 3.3812 -5.40732e-07H2.62803C2.28941 -5.40732e-07 2.01489 0.274517 2.01489 0.613141V1.32435C1.01833 1.5889 0.202657 2.26467 0.202657 3.52024C0.202657 6.15418 3.77089 5.9178 3.77089 7.27981C3.77089 7.82011 3.19688 8.02277 2.67909 8.02277C1.63221 8.02277 1.29457 7.18986 0.765473 7.18986C0.33764 7.18986 -9.31261e-07 7.75268 -9.31261e-07 8.13535C-9.31261e-07 8.75698 0.867971 9.36114 2.01477 9.54239V10.0893C2.01477 10.428 2.28928 10.7025 2.62791 10.7025H3.38108C3.71958 10.7025 3.99422 10.428 3.99422 10.0893V9.38021C4.92703 9.02769 5.52701 8.25286 5.52701 7.09979C5.52726 4.2632 1.95903 4.47717 1.95903 3.35142Z" transform="translate(23.2534 35.5)" fill="#333333"/>
<path d="M1.95903 3.35142C1.95903 3.00246 2.28534 2.67602 3.08466 2.67602C4.00763 2.67602 4.22149 3.10373 4.62668 3.10373C5.12194 3.10373 5.3246 2.48468 5.3246 2.18076C5.3246 1.61413 4.64034 1.36717 3.99434 1.26258V0.613141C3.99434 0.274517 3.71982 -4.95671e-07 3.3812 -4.95671e-07H2.62803C2.28941 -4.95671e-07 2.01489 0.274517 2.01489 0.613141V1.32435C1.01833 1.5889 0.202658 2.26467 0.202658 3.52024C0.202658 6.15418 3.77089 5.91781 3.77089 7.27981C3.77089 7.82011 3.19688 8.02276 2.6791 8.02276C1.63221 8.02276 1.29457 7.18986 0.765473 7.18986C0.33764 7.18986 -6.90936e-07 7.75268 -6.90936e-07 8.13535C-6.90936e-07 8.75698 0.867969 9.36114 2.01476 9.54239V10.0893C2.01476 10.428 2.28928 10.7025 2.62791 10.7025H3.38107C3.71958 10.7025 3.99422 10.428 3.99422 10.0893V9.38021C4.92703 9.02781 5.52701 8.25286 5.52701 7.09979C5.52725 4.2632 1.95903 4.47717 1.95903 3.35142Z" transform="translate(38.1484 15.8943)" fill="#333333"/>
<path d="M1.95903 3.35142C1.95903 3.00246 2.28547 2.67602 3.08466 2.67602C4.00763 2.67602 4.22148 3.10373 4.62668 3.10373C5.12194 3.10373 5.3246 2.48468 5.3246 2.18076C5.3246 1.61413 4.64034 1.36717 3.99434 1.26258V0.613142C3.99434 0.274517 3.71982 -1.38938e-07 3.3812 -1.38938e-07H2.62803C2.28941 -1.38938e-07 2.01489 0.274517 2.01489 0.613142V1.32435C1.01833 1.5889 0.202658 2.26467 0.202658 3.52024C0.202658 6.15418 3.77089 5.91781 3.77089 7.27981C3.77089 7.82011 3.19688 8.02276 2.6791 8.02276C1.63221 8.02276 1.29457 7.18986 0.765474 7.18986C0.33764 7.18986 -5.70773e-07 7.75268 -5.70773e-07 8.13535C-5.70773e-07 8.75698 0.867972 9.36114 2.01477 9.54239V10.0893C2.01477 10.428 2.28928 10.7025 2.62791 10.7025H3.38108C3.71958 10.7025 3.99422 10.428 3.99422 10.0893V9.38021C4.92703 9.02769 5.52701 8.25286 5.52701 7.09979C5.52725 4.2632 1.95903 4.47717 1.95903 3.35142Z" transform="translate(16.5571 4.50757)" fill="#333333"/>
</svg>
