<svg width="72" height="70" viewBox="0 0 72 70" fill="none" xmlns="http://www.w3.org/2000/svg">
<path d="M5.75813 9.19598e-07C5.18406 9.19598e-07 4.71867 0.465393 4.71867 1.03946C4.71867 1.76727 4.1266 2.35933 3.3988 2.35933C2.67113 2.35933 2.07893 1.76727 2.07893 1.03946C2.07893 0.465253 1.61353 9.19598e-07 1.03946 9.19598e-07C0.465391 9.19598e-07 -4.42769e-07 0.465393 -4.42769e-07 1.03946C-4.42769e-07 2.91359 1.52481 4.43826 3.3988 4.43826C5.27279 4.43826 6.79759 2.91345 6.79759 1.03946C6.79759 0.465114 6.3322 9.19598e-07 5.75813 9.19598e-07Z" transform="translate(53.1836 37.0391)" fill="#333333"/>
<path d="M68.6991 37.2085L65.7734 36.2713C65.3987 36.1511 65.1033 35.852 64.9835 35.471C64.3669 33.5106 63.4364 31.67 62.2178 30.0004C61.6624 29.2394 61.0448 28.5127 60.3702 27.8209C60.8018 25.9274 61.0364 23.7844 61.006 21.9331C60.9625 19.2845 60.4332 17.7311 59.388 17.1837C58.8251 16.8885 57.112 15.9918 47.8394 20.2364C47.6198 20.3368 47.4147 20.4606 47.2249 20.6023C46.5998 20.4343 45.9608 20.2789 45.318 20.1394C45.2405 20.1225 45.1607 20.1076 45.0828 20.0912C45.8341 18.4497 46.2729 16.667 46.3553 14.8266C46.381 14.253 45.937 13.7672 45.3633 13.7417C44.7912 13.7132 44.3039 14.1599 44.2784 14.7336C44.1429 17.7596 42.8876 20.6068 40.744 22.7506C39.4632 24.0314 37.9635 24.9617 36.3651 25.5477C33.5933 25.1587 30.77 25.1587 27.9981 25.5477C26.3996 24.9617 24.9001 24.0314 23.6193 22.7506C21.3322 20.4635 20.0726 17.4227 20.0726 14.1882C20.0726 10.9536 21.3322 7.91294 23.6193 5.62588C25.9063 3.33867 28.9473 2.07906 32.1816 2.07906C35.4159 2.07906 38.4569 3.33867 40.744 5.62588C41.663 6.54494 42.4225 7.59375 43.0013 8.74287C43.2596 9.25569 43.8847 9.46216 44.3974 9.2038C44.9102 8.94571 45.1165 8.32058 44.8583 7.8079C44.1799 6.4604 43.2902 5.23177 42.2142 4.15562C39.5344 1.47584 35.9715 -3.19305e-08 32.1818 -3.19305e-08C28.3921 -3.19305e-08 24.8291 1.47584 22.1493 4.15562C19.4695 6.83554 17.9937 10.3984 17.9937 14.1881C17.9937 17.9778 19.4695 21.5408 22.1493 24.2205C22.9223 24.9936 23.7632 25.6583 24.6527 26.2152C24.653 26.2152 24.6533 26.2151 24.6536 26.2151C24.0072 26.383 23.3658 26.5716 22.7315 26.7837C22.187 26.9658 21.8932 27.5546 22.0752 28.0992C22.2571 28.6437 22.8463 28.9375 23.3906 28.7556C29.0596 26.8604 35.3039 26.8604 40.9729 28.7556C41.0823 28.7922 41.1933 28.8095 41.3026 28.8095C41.7374 28.8095 42.1428 28.5344 42.2883 28.0992C42.4704 27.5547 42.1766 26.9658 41.6321 26.7837C40.9977 26.5716 40.3563 26.3829 39.7099 26.2151C39.7102 26.2151 39.7105 26.2152 39.7108 26.2152C40.6004 25.6583 41.4412 24.9936 42.2142 24.2205C42.8981 23.5367 43.5017 22.7899 44.0259 21.9963C44.3124 22.0519 44.5969 22.1102 44.8771 22.1711C45.2504 22.2521 45.6221 22.3392 45.9904 22.4305C45.9788 22.4757 45.9669 22.5208 45.9573 22.5667C45.4504 24.9725 45.4833 27.1002 46.0551 28.8905C46.5691 30.4997 47.4966 31.8034 48.8118 32.7656C50.3618 33.8995 52.2332 34.3893 53.9283 34.3893C55.2041 34.3893 56.3803 34.1117 57.2441 33.6224C58.2212 33.069 59.0398 31.9029 59.6878 30.1521C59.9873 30.5017 60.2712 30.8598 60.5388 31.2264C61.6238 32.7127 62.452 34.3508 63.0005 36.0949C63.3227 37.1193 64.1223 37.9254 65.1395 38.2514L68.0652 39.1886C68.8329 39.4346 69.3486 40.1412 69.3486 40.9472V45.7986C69.3486 46.6046 68.8329 47.3112 68.0652 47.5572L63.3514 49.0671C62.5972 49.3088 61.959 49.8271 61.5543 50.5266C59.7023 53.7271 56.7907 56.3757 52.8997 58.3986C52.4502 58.6326 52.1389 59.051 52.0451 59.5468L50.5354 67.5409C50.4937 67.7612 50.3007 67.9209 50.0765 67.9209H45.1677C44.9435 67.9209 44.7506 67.7611 44.7089 67.5409L43.8727 63.1229C43.7081 62.2536 42.8928 61.6762 42.0153 61.8092C39.9008 62.1289 37.722 62.2909 35.5397 62.2909C33.9161 62.2909 32.3133 62.2003 30.7755 62.0216C29.9252 61.9238 29.1331 62.5035 28.9742 63.343L28.1796 67.5409C28.1379 67.7612 27.945 67.9209 27.7208 67.9209H22.812C22.5878 67.9209 22.3948 67.7611 22.3526 67.5376L20.8989 59.9872C20.8053 59.5007 20.4998 59.0871 20.0602 58.8523C13.4275 55.3115 9.9217 49.3959 9.9217 41.7453C9.9217 37.8799 10.7674 34.4619 12.4352 31.5858C13.9915 28.9018 16.2646 26.6827 19.1913 24.9898C19.6883 24.7023 19.858 24.0664 19.5707 23.5693C19.2833 23.0724 18.6474 22.9029 18.1503 23.19C12.4754 26.4729 9.05257 31.5375 8.11021 37.9702V37.97C8.01018 37.961 7.91001 37.9523 7.81027 37.942C7.8284 37.2479 7.70285 36.5476 7.42942 35.8679C6.82633 34.3688 5.58751 33.2868 4.27322 33.1114C3.23753 32.9728 2.25191 33.4125 1.56791 34.3162C0.576162 35.6267 0.73785 36.6638 1.04797 37.303C1.57154 38.3818 2.91736 39.1449 5.15072 39.6247C5.08933 39.7166 5.02181 39.809 4.94787 39.9018C3.62828 41.5567 2.07362 41.9227 1.06415 41.9571C0.473206 41.9771 0 42.4515 0 43.0429V43.0479C0 43.6312 0.460232 44.1069 1.04295 44.1336C1.11759 44.137 1.19557 44.1389 1.27676 44.1389C2.55408 44.1389 4.60413 43.6677 6.57368 41.1981C6.88464 40.8083 7.13799 40.397 7.33274 39.9721C7.52888 39.9943 7.71736 40.0132 7.89788 40.03C7.89788 40.0296 7.89788 40.0293 7.89802 40.0289C7.86258 40.5922 7.84291 41.1637 7.84291 41.7453C7.84291 46.074 8.87484 49.9334 10.9098 53.217C12.7862 56.2442 15.4727 58.723 18.8973 60.5871L20.3105 67.9274C20.5377 69.1282 21.5897 69.9999 22.812 69.9999H27.7208C28.943 69.9999 29.995 69.1282 30.2223 67.9274L30.9407 64.1317C32.4329 64.2897 33.9778 64.3698 35.5395 64.3698C37.6824 64.3698 39.8227 64.2205 41.9086 63.9259L42.6659 67.9276C42.8933 69.1285 43.9454 70 45.1674 70H50.0763C51.2985 70 52.3505 69.1284 52.5779 67.9271L54.0479 60.1439C58.2007 57.9479 61.3309 55.0632 63.3535 51.5677C63.4993 51.3158 63.7237 51.1309 63.9855 51.0471L68.6991 49.5372C70.3309 49.0142 71.4273 47.5118 71.4273 45.7983V40.9469C71.4273 39.2335 70.3309 37.7312 68.6991 37.2085ZM58.771 24.8542C58.3709 28.2757 57.2977 31.2026 56.2193 31.8133C54.9936 32.5076 52.1637 32.6417 50.039 31.0875C47.9118 29.5314 47.2038 26.7332 47.9913 22.9953C47.9913 22.9951 47.9913 22.9951 47.9913 22.9951C48.0704 22.6197 48.3372 22.2949 48.7048 22.1267C53.9089 19.7445 56.9093 18.9653 58.0239 18.9653C58.1922 18.9653 58.3175 18.9831 58.4009 19.0157C58.7357 19.3726 59.1749 21.4011 58.771 24.8542ZM2.91861 36.3953C2.81105 36.1735 3.06496 35.7835 3.22595 35.5706C3.4811 35.2336 3.71617 35.1647 3.89376 35.1647C3.93129 35.1647 3.96631 35.1678 3.99839 35.1721C4.47634 35.2358 5.14597 35.7618 5.50074 36.6436C5.5843 36.8512 5.69284 37.1951 5.71823 37.6239C4.27922 37.3258 3.16122 36.896 2.91861 36.3953Z" fill="#333333"/>
<path d="M1 0C1 -0.552285 0.552285 -1 0 -1C-0.552285 -1 -1 -0.552285 -1 0H1ZM0 7H-1L-0.707107 7.70711L0 7ZM3.29289 11.7071C3.68342 12.0976 4.31658 12.0976 4.70711 11.7071C5.09763 11.3166 5.09763 10.6834 4.70711 10.2929L3.29289 11.7071ZM-1 0V7H1V0H-1ZM-0.707107 7.70711L3.29289 11.7071L4.70711 10.2929L0.707107 6.29289L-0.707107 7.70711Z" transform="translate(32.5005 7)" fill="#333333"/>
</svg>
