<svg width="70" height="70" viewBox="0 0 70 70" fill="none" xmlns="http://www.w3.org/2000/svg">
<path d="M3.5 0C1.57033 0 0 1.57033 0 3.5H2.33333C2.33333 2.85717 2.856 2.33333 3.5 2.33333C4.144 2.33333 4.66667 2.85717 4.66667 3.5H7C7 1.57033 5.42967 0 3.5 0Z" transform="translate(26.8335 22.1666)" fill="#333333"/>
<path d="M3.5 0C1.57033 0 0 1.57033 0 3.5H2.33333C2.33333 2.85717 2.856 2.33333 3.5 2.33333C4.144 2.33333 4.66667 2.85717 4.66667 3.5H7C7 1.57033 5.42967 0 3.5 0Z" transform="translate(36.1665 22.1666)" fill="#333333"/>
<path d="M4.66667 0C2.093 0 0 2.093 0 4.66667C0 7.24033 2.093 9.33333 4.66667 9.33333C7.24033 9.33333 9.33333 7.24033 9.33333 4.66667C9.33333 2.093 7.24033 0 4.66667 0ZM4.66667 7C3.37983 7 2.33333 5.9535 2.33333 4.66667C2.33333 3.37983 3.37983 2.33333 4.66667 2.33333C5.9535 2.33333 7 3.37983 7 4.66667C7 5.9535 5.9535 7 4.66667 7Z" transform="translate(30.3335 53.6666)" fill="#333333"/>
<path d="M63 67.6667V52.5C63 42.8505 55.1495 35 45.5 35H44.2295C44.6448 34.6348 45.0357 34.2452 45.4055 33.8333H46.6667C49.8832 33.8333 52.5 31.2165 52.5 28V25.9443C53.9058 25.0017 54.8333 23.3987 54.8333 21.5833C54.8333 19.761 53.8988 18.1557 52.486 17.2142C52.3308 7.69767 44.5538 0 35 0C25.4462 0 17.6692 7.69767 17.514 17.2142C16.1012 18.1557 15.1667 19.761 15.1667 21.5833C15.1667 24.4778 17.5222 26.8333 20.4167 26.8333H21.2112C21.7572 30.0662 23.4092 32.921 25.7717 35H24.5C14.8505 35 7 42.8505 7 52.5V67.6667H0V70H8.16667H14H56H61.8333H70V67.6667H63ZM50.1667 28C50.1667 29.7698 48.8413 31.2212 47.1345 31.4522C47.943 30.0463 48.51 28.4888 48.7888 26.8333H49.5833C49.7828 26.8333 49.973 26.796 50.1667 26.7738V28ZM52.5 21.5833C52.5 23.191 51.1922 24.5 49.5833 24.5H49V18.6667H49.5833C51.1922 18.6667 52.5 19.9757 52.5 21.5833ZM21 24.5H20.4167C18.8078 24.5 17.5 23.191 17.5 21.5833C17.5 19.9757 18.8078 18.6667 20.4167 18.6667H21V24.5ZM20.4167 16.3333C20.2358 16.3333 20.0655 16.3683 19.8893 16.387C20.4633 8.5435 27.013 2.33333 35 2.33333C42.987 2.33333 49.5367 8.5435 50.1107 16.387C49.9345 16.3683 49.7642 16.3333 49.5833 16.3333H48.7888C47.6735 9.723 41.923 4.66667 35 4.66667C28.077 4.66667 22.3265 9.723 21.2112 16.3333H20.4167ZM46.6655 18.6375C38.2457 18.3412 32.6667 14.8983 32.6667 11.6667C32.6667 11.0227 32.1452 10.5 31.5 10.5C30.8548 10.5 30.3333 11.0227 30.3333 11.6667C30.3333 14.5822 27.3187 16.9983 23.401 17.4265C24.0228 11.5745 28.987 7 35 7C41.4225 7 46.6492 12.2185 46.6655 18.6375ZM23.3333 24.5V19.768C26.9768 19.4518 30.0685 17.6948 31.612 15.2343C34.0527 18.4683 39.7565 20.7445 46.6667 20.9767V24.5C46.6667 27.1285 45.7823 29.547 44.3112 31.5H35V33.8333H41.9697C41.3 34.335 40.5778 34.7667 39.8078 35.1167C36.7465 36.5073 33.2523 36.5073 30.1898 35.1167C26.1532 33.2803 23.3333 29.218 23.3333 24.5ZM31.3938 38.0123C32.5465 38.3203 33.7517 38.5 35 38.5C36.2483 38.5 37.4535 38.3203 38.6062 38.0123L35 45.2247L31.3938 38.0123ZM33.1123 46.6667H31.0543L26.3877 37.3333H28.4457L33.1123 46.6667ZM41.5543 37.3333H43.6123L38.9457 46.6667H36.8877L41.5543 37.3333ZM12.8333 52.5V67.6667H9.33333V52.5C9.33333 44.3742 15.7617 37.7405 23.7965 37.3695L28.4457 46.6667H18.6667C15.4502 46.6667 12.8333 49.2835 12.8333 52.5ZM54.8333 67.6667H15.1667V52.5C15.1667 50.5703 16.737 49 18.6667 49H30.3333H35H39.6667H51.3333C53.263 49 54.8333 50.5703 54.8333 52.5V67.6667ZM60.6667 67.6667H57.1667V52.5C57.1667 49.2835 54.5498 46.6667 51.3333 46.6667H41.5543L46.2035 37.3695C54.2383 37.7405 60.6667 44.3742 60.6667 52.5V67.6667Z" fill="#333333"/>
<path d="M2.33333 7V1.16667C2.33333 0.522334 1.811 0 1.16667 0C0.522334 0 0 0.522335 0 1.16667V7C0 7.64433 0.522334 8.16667 1.16667 8.16667C1.811 8.16667 2.33333 7.64433 2.33333 7Z" transform="translate(50.1665 57.1666)" fill="#333333"/>
<path d="M1.16667 1.83333C0.798477 1.83333 0.5 1.53486 0.5 1.16667C0.5 0.798477 0.798477 0.5 1.16667 0.5C1.53486 0.5 1.83333 0.798477 1.83333 1.16667C1.83333 1.53486 1.53486 1.83333 1.16667 1.83333Z" transform="translate(50.1665 52.5)" fill="#333333" stroke="#333333"/>
</svg>
